<?xml version="1.0" encoding="utf-8"?>
<!-- Generator: Adobe Illustrator 14.0.0, SVG Export Plug-In . SVG Version: 6.00 Build 43363)  -->
<!DOCTYPE svg PUBLIC "-//W3C//DTD SVG 1.1//EN" "http://www.w3.org/Graphics/SVG/1.1/DTD/svg11.dtd">
<svg version="1.1" id="Isolation_Mode" xmlns="http://www.w3.org/2000/svg" xmlns:xlink="http://www.w3.org/1999/xlink" x="0px"
	 y="0px" width="130.394px" height="130.394px" viewBox="0 0 130.394 130.394" enable-background="new 0 0 130.394 130.394"
	 xml:space="preserve">
<g>
	<circle fill="#CECDCD" cx="65.198" cy="65.197" r="63"/>
	<path fill="#787676" d="M52.466,53.716c1.417,5.428,6.728,8.967,12.138,8.967c5.406,0,10.721-3.539,12.146-8.967l2.318-8.805
		c1.238-4.744,0.658-9.793-1.648-13.99c-2.607-4.794-7.221-8.111-12.816-8.111c-5.59,0-10.195,3.316-12.826,8.111
		c-2.291,4.197-2.873,9.246-1.633,13.99L52.466,53.716z"/>
	<path fill="#787676" d="M65.198,105.599c11.977,0,22.773-4.986,30.484-12.973l-1.084-10.709
		c-9.631-3.959-16.785-6.338-29.871-6.338c-12.671,0-19.466,2.199-28.937,5.955c0,0-0.458,4.648-1.096,11.072
		C42.405,100.603,53.209,105.599,65.198,105.599z"/>
</g>
</svg>
