<?xml version="1.0" encoding="utf-8"?>
<!-- Generator: Adobe Illustrator 14.0.0, SVG Export Plug-In . SVG Version: 6.00 Build 43363)  -->
<!DOCTYPE svg PUBLIC "-//W3C//DTD SVG 1.1//EN" "http://www.w3.org/Graphics/SVG/1.1/DTD/svg11.dtd">
<svg version="1.1" id="Isolation_Mode" xmlns="http://www.w3.org/2000/svg" xmlns:xlink="http://www.w3.org/1999/xlink" x="0px"
	 y="0px" width="65px" height="65px" viewBox="0 0 65 65" enable-background="new 0 0 65 65" xml:space="preserve">
<circle fill="#CECDCD" cx="32.501" cy="32.5" r="31.5"/>
<path fill="#787676" d="M26.135,26.76c0.709,2.714,3.364,4.483,6.069,4.483c2.703,0,5.36-1.77,6.073-4.483l1.159-4.402
	c0.619-2.372,0.329-4.896-0.824-6.995c-1.304-2.397-3.61-4.056-6.408-4.056c-2.795,0-5.098,1.658-6.413,4.056
	c-1.146,2.099-1.437,4.623-0.816,6.995L26.135,26.76z"/>
<path fill="#787676" d="M32.501,52.701c5.988,0,11.387-2.493,15.242-6.486l-0.542-5.354c-4.815-1.979-8.393-3.169-14.936-3.169
	c-6.336,0-9.733,1.1-14.469,2.978c0,0-0.229,2.324-0.548,5.536C21.104,50.203,26.507,52.701,32.501,52.701z"/>
</svg>
