<?xml version="1.0" encoding="utf-8"?>
<!-- Generator: Adobe Illustrator 14.0.0, SVG Export Plug-In . SVG Version: 6.00 Build 43363)  -->
<!DOCTYPE svg PUBLIC "-//W3C//DTD SVG 1.1//EN" "http://www.w3.org/Graphics/SVG/1.1/DTD/svg11.dtd">
<svg version="1.1" id="Layer_1" xmlns="http://www.w3.org/2000/svg" xmlns:xlink="http://www.w3.org/1999/xlink" x="0px" y="0px"
	 width="130px" height="130px" viewBox="185 185 130 130" enable-background="new 185 185 130 130" xml:space="preserve">
<g>
	<circle fill="#CECDCD" cx="250" cy="250" r="63"/>
	<g>
		<path fill="#7E7B7B" d="M223.711,266.824h20.99v6.369c-8.512,0.832-12.892,0.047-15.184,3.631h40.965
			c-2.291-3.586-6.672-2.799-15.184-3.631v-6.369h20.99c3.154,0,5.711-2.557,5.711-5.711v-32.226c0-3.155-2.557-5.712-5.711-5.712
			h-52.578c-3.154,0-5.711,2.557-5.711,5.712v32.226C218,264.268,220.557,266.824,223.711,266.824z M221.403,231.3
			c0-2.448,2.285-4.433,5.104-4.433h46.985c2.82,0,5.105,1.984,5.105,4.433v27.106c0,2.447-2.285,4.434-5.105,4.434h-46.985
			c-2.818,0-5.104-1.986-5.104-4.434V231.3z"/>
	</g>
</g>
</svg>
