<?xml version="1.0" encoding="utf-8"?>
<!-- Generator: Adobe Illustrator 14.0.0, SVG Export Plug-In . SVG Version: 6.00 Build 43363)  -->
<!DOCTYPE svg PUBLIC "-//W3C//DTD SVG 1.1//EN" "http://www.w3.org/Graphics/SVG/1.1/DTD/svg11.dtd">
<svg version="1.1" id="Layer_1" xmlns="http://www.w3.org/2000/svg" xmlns:xlink="http://www.w3.org/1999/xlink" x="0px" y="0px"
	 width="65px" height="65px" viewBox="217.5 217.5 65 65" enable-background="new 217.5 217.5 65 65" xml:space="preserve">
<circle fill="#CECDCD" cx="250" cy="250" r="31.5"/>
<g>
	<path fill="#7E7B7B" d="M236.855,258.412h10.495v3.185c-4.256,0.416-6.446,0.023-7.592,1.815h20.482
		c-1.146-1.793-3.336-1.399-7.592-1.815v-3.185h10.495c1.577,0,2.855-1.278,2.855-2.855v-16.113c0-1.578-1.278-2.856-2.855-2.856
		h-26.289c-1.577,0-2.855,1.278-2.855,2.856v16.113C234,257.134,235.279,258.412,236.855,258.412z M235.701,240.65
		c0-1.224,1.143-2.216,2.552-2.216h23.493c1.41,0,2.553,0.992,2.553,2.216v13.553c0,1.224-1.143,2.217-2.553,2.217h-23.493
		c-1.409,0-2.552-0.993-2.552-2.217V240.65z"/>
</g>
</svg>
