<?xml version="1.0" encoding="utf-8"?>
<!-- Generator: Adobe Illustrator 14.0.0, SVG Export Plug-In . SVG Version: 6.00 Build 43363)  -->
<!DOCTYPE svg PUBLIC "-//W3C//DTD SVG 1.1//EN" "http://www.w3.org/Graphics/SVG/1.1/DTD/svg11.dtd">
<svg version="1.1" id="Layer_1" xmlns="http://www.w3.org/2000/svg" xmlns:xlink="http://www.w3.org/1999/xlink" x="0px" y="0px"
	 width="19px" height="19px" viewBox="0 0 19 19" enable-background="new 0 0 19 19" xml:space="preserve">
<path fill-rule="evenodd" clip-rule="evenodd" fill="#64BC44" d="M16.375,8.125h-5.5v-5.5c0-0.76-0.616-1.375-1.375-1.375
	c-0.76,0-1.375,0.615-1.375,1.375v5.5h-5.5C1.865,8.125,1.25,8.74,1.25,9.5c0,0.759,0.615,1.375,1.375,1.375h5.5v5.5
	c0,0.76,0.615,1.375,1.375,1.375c0.759,0,1.375-0.615,1.375-1.375v-5.5h5.5c0.758,0,1.375-0.616,1.375-1.375
	C17.75,8.74,17.133,8.125,16.375,8.125z"/>
</svg>
