<?xml version="1.0" encoding="utf-8"?>
<!-- Generator: Adobe Illustrator 14.0.0, SVG Export Plug-In . SVG Version: 6.00 Build 43363)  -->
<!DOCTYPE svg PUBLIC "-//W3C//DTD SVG 1.1//EN" "http://www.w3.org/Graphics/SVG/1.1/DTD/svg11.dtd">
<svg version="1.1" id="Layer_1" xmlns="http://www.w3.org/2000/svg" xmlns:xlink="http://www.w3.org/1999/xlink" x="0px" y="0px"
	 width="13px" height="12px" viewBox="0 0 13 12" enable-background="new 0 0 13 12" xml:space="preserve">
<g>
	<rect x="1.253" y="0.989" fill="#FFFFFF" width="1.921" height="1.777"/>
	<rect x="1.253" y="3.751" fill="#FFFFFF" width="1.921" height="7.26"/>
	<path fill="#FFFFFF" d="M11.641,5.207c-0.07-0.301-0.195-0.57-0.377-0.807c-0.18-0.237-0.445-0.432-0.795-0.584
		C10.117,3.663,9.73,3.587,9.307,3.587c-0.963,0-1.76,0.41-2.393,1.23V3.751H5.129v7.26H7.05V7.723c0-0.812,0.049-1.367,0.147-1.668
		C7.295,5.754,7.476,5.512,7.74,5.33c0.266-0.182,0.563-0.273,0.896-0.273c0.26,0,0.48,0.064,0.666,0.191
		c0.184,0.127,0.318,0.307,0.4,0.537s0.123,0.737,0.123,1.521v3.705h1.92V6.499C11.746,5.938,11.711,5.508,11.641,5.207z"/>
</g>
</svg>
