<?xml version="1.0" encoding="utf-8"?>
<!-- Generator: Adobe Illustrator 14.0.0, SVG Export Plug-In . SVG Version: 6.00 Build 43363)  -->
<!DOCTYPE svg PUBLIC "-//W3C//DTD SVG 1.1//EN" "http://www.w3.org/Graphics/SVG/1.1/DTD/svg11.dtd">
<svg version="1.1" id="Layer_1" xmlns="http://www.w3.org/2000/svg" xmlns:xlink="http://www.w3.org/1999/xlink" x="0px" y="0px"
	 width="26px" height="24px" viewBox="0 0 26 24" enable-background="new 0 0 26 24" xml:space="preserve">
<g>
	<rect x="2.5" y="1.972" fill="#FFFFFF" width="3.845" height="3.557"/>
	<rect x="2.5" y="7.499" fill="#FFFFFF" width="3.845" height="14.529"/>
	<path fill="#FFFFFF" d="M23.289,10.413c-0.142-0.602-0.392-1.141-0.755-1.615c-0.359-0.474-0.892-0.864-1.591-1.169
		c-0.704-0.306-1.478-0.458-2.326-0.458c-1.927,0-3.521,0.821-4.789,2.463V7.499h-3.571v14.529h3.844v-6.581
		c0-1.624,0.098-2.736,0.295-3.338c0.195-0.602,0.558-1.085,1.086-1.45c0.531-0.364,1.126-0.547,1.794-0.547
		c0.521,0,0.962,0.128,1.333,0.383c0.368,0.255,0.638,0.614,0.802,1.074c0.164,0.46,0.246,1.475,0.246,3.044v7.415H23.5v-9.03
		C23.5,11.877,23.43,11.015,23.289,10.413z"/>
</g>
</svg>
