<?xml version="1.0" encoding="utf-8"?>
<!-- Generator: Adobe Illustrator 14.0.0, SVG Export Plug-In . SVG Version: 6.00 Build 43363)  -->
<!DOCTYPE svg PUBLIC "-//W3C//DTD SVG 1.1//EN" "http://www.w3.org/Graphics/SVG/1.1/DTD/svg11.dtd">
<svg version="1.1" id="Layer_1" xmlns="http://www.w3.org/2000/svg" xmlns:xlink="http://www.w3.org/1999/xlink" x="0px" y="0px"
	 width="13px" height="13px" viewBox="0 0 13 13" enable-background="new 0 0 13 13" xml:space="preserve">
<g>
	<path fill="#FFFFFF" d="M10.531,3.516c-0.484-1.7-2.111-3.013-3.964-3.013c-1.854,0-3.511,1.313-3.995,3.013H0.497v2h12.017v-2
		H10.531z M3.565,3.516C4.01,2.377,5.21,1.504,6.505,1.504c1.294,0,2.588,0.873,3.033,2.012H3.565z"/>
	<path fill="#FFFFFF" d="M0.497,12.52h12.017V6.504H0.497V12.52z M6.503,8.537c0.541,0,0.98,0.438,0.98,0.979
		s-0.439,0.979-0.98,0.979s-0.98-0.438-0.98-0.979S5.962,8.537,6.503,8.537z"/>
</g>
</svg>
