<?xml version="1.0" encoding="utf-8"?>
<!-- Generator: Adobe Illustrator 14.0.0, SVG Export Plug-In . SVG Version: 6.00 Build 43363)  -->
<!DOCTYPE svg PUBLIC "-//W3C//DTD SVG 1.1//EN" "http://www.w3.org/Graphics/SVG/1.1/DTD/svg11.dtd">
<svg version="1.1" id="Layer_1" xmlns="http://www.w3.org/2000/svg" xmlns:xlink="http://www.w3.org/1999/xlink" x="0px" y="0px"
	 width="26px" height="26px" viewBox="0 0 26 26" enable-background="new 0 0 26 26" xml:space="preserve">
<g>
	<path fill="#FFFFFF" d="M21.041,7.017C20.073,3.622,16.824,1,13.125,1C9.423,1,6.113,3.622,5.146,7.017H1v3.995h24V7.017H21.041z
		 M7.128,7.017C8.018,4.743,10.414,3,13,3c2.584,0,5.168,1.744,6.058,4.018H7.128z"/>
	<path fill="#FFFFFF" d="M1,25h24V12.985H1V25z M12.997,17.047c1.08,0,1.957,0.875,1.957,1.955s-0.877,1.955-1.957,1.955
		c-1.081,0-1.958-0.875-1.958-1.955S11.917,17.047,12.997,17.047z"/>
</g>
</svg>
