<?xml version="1.0" encoding="utf-8"?>
<!-- Generator: Adobe Illustrator 14.0.0, SVG Export Plug-In . SVG Version: 6.00 Build 43363)  -->
<!DOCTYPE svg PUBLIC "-//W3C//DTD SVG 1.1//EN" "http://www.w3.org/Graphics/SVG/1.1/DTD/svg11.dtd">
<svg version="1.1" id="Layer_1" xmlns="http://www.w3.org/2000/svg" xmlns:xlink="http://www.w3.org/1999/xlink" x="0px" y="0px"
	 width="32px" height="32px" viewBox="0 0 32 32" enable-background="new 0 0 32 32" xml:space="preserve">
<g>
	<polygon opacity="0.702" fill-rule="evenodd" clip-rule="evenodd" points="25.542,21.512 21.092,25.053 26.858,31.525 
		30.398,31.525 30.5,27.684 	"/>
	<path opacity="0.702" fill-rule="evenodd" clip-rule="evenodd" d="M25.608,12.529c0-6.658-5.396-12.054-12.054-12.054
		C6.897,0.475,1.5,5.871,1.5,12.529c0,6.657,5.397,12.051,12.054,12.051C20.212,24.58,25.608,19.186,25.608,12.529z M13.554,21.243
		c-4.811,0-8.713-3.903-8.713-8.714c0-4.813,3.902-8.715,8.713-8.715s8.713,3.902,8.713,8.715
		C22.268,17.34,18.365,21.243,13.554,21.243z"/>
</g>
</svg>
