<?xml version="1.0" encoding="utf-8"?>
<!-- Generator: Adobe Illustrator 14.0.0, SVG Export Plug-In . SVG Version: 6.00 Build 43363)  -->
<!DOCTYPE svg PUBLIC "-//W3C//DTD SVG 1.1//EN" "http://www.w3.org/Graphics/SVG/1.1/DTD/svg11.dtd">
<svg version="1.1" id="Layer_1" xmlns="http://www.w3.org/2000/svg" xmlns:xlink="http://www.w3.org/1999/xlink" x="0px" y="0px"
	 width="16px" height="16px" viewBox="0 0 16 16" enable-background="new 0 0 16 16" xml:space="preserve">
<g>
	<polygon opacity="0.702" fill-rule="evenodd" clip-rule="evenodd" points="12.774,10.758 10.548,12.529 13.433,15.768 
		15.204,15.768 15.255,13.846 	"/>
	<path opacity="0.702" fill-rule="evenodd" clip-rule="evenodd" d="M12.808,6.263c0-3.331-2.7-6.031-6.031-6.031
		s-6.031,2.7-6.031,6.031c0,3.331,2.7,6.03,6.031,6.03S12.808,9.594,12.808,6.263z M6.776,10.623c-2.407,0-4.359-1.953-4.359-4.36
		c0-2.408,1.952-4.36,4.359-4.36s4.359,1.952,4.359,4.36C11.136,8.67,9.184,10.623,6.776,10.623z"/>
</g>
</svg>
