<?xml version="1.0" encoding="utf-8"?>
<!-- Generator: Adobe Illustrator 14.0.0, SVG Export Plug-In . SVG Version: 6.00 Build 43363)  -->
<!DOCTYPE svg PUBLIC "-//W3C//DTD SVG 1.1//EN" "http://www.w3.org/Graphics/SVG/1.1/DTD/svg11.dtd">
<svg version="1.1" id="Layer_1" xmlns="http://www.w3.org/2000/svg" xmlns:xlink="http://www.w3.org/1999/xlink" x="0px" y="0px"
	 width="11px" height="16px" viewBox="0 0 11 16" enable-background="new 0 0 11 16" xml:space="preserve">
<g id="Shape_53_copy">
	<g>
		<path fill-rule="evenodd" clip-rule="evenodd" fill="#FFFFFF" d="M9.8,11.712c-0.82-0.234-1.543-0.575-2.166-1.026
			c-0.153-0.181-0.424-0.188-0.667-0.053l-1.785,0.994c-1.5-1.45-2.603-3.336-2.983-5.355l1.849-0.977
			c0.18-0.153,0.315-0.388,0.306-0.596c-0.037-0.83,0.053-1.624,0.269-2.382c0.107-0.379-0.073-0.703-0.452-0.812L1.958,0.877
			C1.58,0.77,1.254,0.95,1.147,1.329C-0.542,7.268,2.892,13.434,8.83,15.123c0.378,0.107,0.703-0.073,0.812-0.452l0.61-2.148
			C10.36,12.145,10.179,11.819,9.8,11.712z"/>
	</g>
</g>
</svg>
