<?xml version="1.0" encoding="utf-8"?>
<!-- Generator: Adobe Illustrator 14.0.0, SVG Export Plug-In . SVG Version: 6.00 Build 43363)  -->
<!DOCTYPE svg PUBLIC "-//W3C//DTD SVG 1.1//EN" "http://www.w3.org/Graphics/SVG/1.1/DTD/svg11.dtd">
<svg version="1.1" id="Layer_1" xmlns="http://www.w3.org/2000/svg" xmlns:xlink="http://www.w3.org/1999/xlink" x="0px" y="0px"
	 width="22px" height="32px" viewBox="0 0 22 32" enable-background="new 0 0 22 32" xml:space="preserve">
<g id="Shape_53_copy">
	<g>
		<path fill-rule="evenodd" clip-rule="evenodd" fill="#FFFFFF" d="M19.54,23.372c-1.629-0.465-3.064-1.143-4.302-2.038
			c-0.305-0.359-0.842-0.374-1.325-0.104l-3.544,1.974C7.39,20.323,5.2,16.578,4.443,12.567l3.672-1.939
			c0.357-0.305,0.626-0.77,0.607-1.183C8.648,7.795,8.827,6.219,9.255,4.713C9.469,3.961,9.11,3.317,8.357,3.102L3.966,1.853
			C3.214,1.639,2.568,1.998,2.354,2.75c-3.355,11.795,3.466,24.042,15.26,27.397c0.751,0.213,1.396-0.146,1.611-0.898l1.213-4.267
			C20.653,24.231,20.293,23.586,19.54,23.372z"/>
	</g>
</g>
</svg>
